<?xml version="1.0" encoding="utf-8"?>
<!-- Generator: Adobe Illustrator 27.2.0, SVG Export Plug-In . SVG Version: 6.00 Build 0)  -->
<svg version="1.1" id="Layer_1" xmlns="http://www.w3.org/2000/svg" xmlns:xlink="http://www.w3.org/1999/xlink" x="0px" y="0px"
	 viewBox="0 0 542.8 282.6" style="enable-background:new 0 0 542.8 282.6;" xml:space="preserve">
<style type="text/css">
	.st0{fill:none;stroke:#010101;stroke-width:6.61;stroke-linecap:round;stroke-linejoin:round;}
	.st1{fill-rule:evenodd;clip-rule:evenodd;fill:#010101;}
	.st2{fill:#231F20;}
</style>
<g>
	<path class="st0" d="M67.2,255.9C-75.4,145.4,186.3,66.4,23.5,17.3c207.2-70,106.9,215.9,165.3,238.6"/>
	<path class="st0" d="M22.8,255.9h182.3"/>
	<path class="st1" d="M78.4,67.8c89.9,2.5-21.7,135.4,89.5,137.9c-7.6-85.6,15.2-242.6-144.4-188.4C71.2,31.3,82.4,48.3,78.4,67.8
		L78.4,67.8z"/>
	<path class="st1" d="M67.2,255.9c-10.1-7.6-18-15.2-24.2-22.4c0,0-42.6-0.7-20.2,22.4H67.2L67.2,255.9L67.2,255.9z"/>
</g>
<g>
	<path class="st2" d="M232.2,86.7c0,2.7-0.5,5.3-1.4,7.6c-1,2.3-2.3,4.4-4,6.1c-2.1,2.1-4.6,3.7-7.5,4.8s-6.6,1.6-11,1.6H200v23
		h-8.2V68h16.8c3.7,0,6.8,0.3,9.4,0.9c2.6,0.6,4.9,1.6,6.8,2.9c2.4,1.6,4.2,3.5,5.4,5.9C231.6,80.1,232.2,83.1,232.2,86.7
		L232.2,86.7z M223.7,86.9c0-2.1-0.4-4-1.1-5.6s-1.9-2.9-3.4-3.9c-1.3-0.9-2.8-1.5-4.5-1.8s-3.9-0.6-6.4-0.6H200v24.7h6.9
		c3.3,0,6-0.3,8.1-0.9c2.1-0.6,3.8-1.5,5.1-2.8c1.3-1.3,2.2-2.7,2.8-4.2C223.4,90.4,223.7,88.7,223.7,86.9L223.7,86.9z"/>
	<path class="st2" d="M279.1,107.4H245c0,2.8,0.4,5.3,1.3,7.4c0.9,2.1,2,3.8,3.5,5.2c1.4,1.3,3.1,2.3,5.1,3c2,0.7,4.2,1,6.5,1
		c3.1,0,6.3-0.6,9.5-1.9c3.2-1.3,5.5-2.5,6.8-3.7h0.4v8.5c-2.6,1.1-5.3,2-8,2.8c-2.7,0.7-5.6,1.1-8.6,1.1c-7.7,0-13.7-2.1-18-6.2
		c-4.3-4.2-6.5-10.1-6.5-17.7s2.1-13.6,6.2-18c4.1-4.4,9.6-6.7,16.3-6.7c6.2,0,11.1,1.8,14.4,5.5c3.4,3.7,5.1,8.8,5.1,15.5
		L279.1,107.4L279.1,107.4z M271.5,101.4c0-4.1-1.1-7.3-3.1-9.5s-5.1-3.4-9.3-3.4c-4.1,0-7.5,1.2-10,3.7s-3.9,5.5-4.2,9.2
		L271.5,101.4L271.5,101.4z"/>
	<path class="st2" d="M329.6,129.8h-7.8v-26.4c0-2.1-0.1-4.1-0.4-6s-0.7-3.3-1.4-4.4c-0.7-1.2-1.7-2-3-2.6c-1.3-0.6-3-0.8-5.1-0.8
		s-4.4,0.5-6.7,1.6c-2.3,1.1-4.5,2.4-6.7,4v34.6h-7.8V83.5h7.8v5.1c2.4-2,4.9-3.6,7.5-4.7c2.6-1.1,5.3-1.7,8-1.7
		c5,0,8.8,1.5,11.4,4.5s3.9,7.3,3.9,13L329.6,129.8L329.6,129.8z"/>
	<path class="st2" d="M382.2,124.5c0,7.9-1.8,13.6-5.4,17.3c-3.6,3.7-9,5.5-16.5,5.5c-2.5,0-4.9-0.2-7.2-0.5s-4.6-0.8-6.9-1.5v-8
		h0.4c1.3,0.5,3.3,1.1,6,1.8c2.8,0.7,5.5,1.1,8.3,1.1s4.9-0.3,6.6-1s3.1-1.5,4.1-2.7c1-1.1,1.7-2.4,2.1-3.9s0.6-3.2,0.6-5.1v-4.2
		c-2.4,1.9-4.6,3.3-6.7,4.2c-2.1,0.9-4.9,1.4-8.2,1.4c-5.5,0-9.9-2-13.2-6c-3.2-4-4.9-9.6-4.9-16.9c0-4,0.6-7.4,1.7-10.3
		s2.6-5.4,4.6-7.5c1.8-2,4-3.5,6.5-4.6c2.6-1.1,5.1-1.6,7.7-1.6c2.7,0,4.9,0.3,6.7,0.8s3.7,1.4,5.7,2.5l0.5-2h7.3L382.2,124.5
		L382.2,124.5z M374.4,117V91.8c-2.1-0.9-4-1.6-5.8-2s-3.6-0.6-5.3-0.6c-4.3,0-7.7,1.4-10.1,4.3s-3.7,7-3.7,12.5s0.9,9.1,2.7,11.8
		c1.8,2.7,4.9,4,9.1,4c2.3,0,4.5-0.4,6.8-1.3S372.5,118.5,374.4,117L374.4,117z"/>
	<path class="st2" d="M435.9,129.8h-7.8v-5.1c-2.6,2.1-5.1,3.7-7.5,4.8s-5.1,1.7-8,1.7c-4.9,0-8.6-1.5-11.4-4.5s-4.1-7.3-4.1-13.1
		V83.5h7.8v26.4c0,2.3,0.1,4.4,0.3,6s0.7,3.1,1.4,4.3c0.7,1.2,1.7,2.1,2.9,2.7c1.2,0.6,2.9,0.8,5.2,0.8c2,0,4.2-0.5,6.6-1.6
		c2.4-1.1,4.6-2.4,6.7-4V83.5h7.8L435.9,129.8L435.9,129.8z"/>
	<path class="st2" d="M459.6,75.7h-8.8v-8.1h8.8V75.7z M459.1,129.8h-7.8V83.5h7.8V129.8z"/>
	<path class="st2" d="M513.3,129.8h-7.8v-26.4c0-2.1-0.1-4.1-0.4-6s-0.7-3.3-1.4-4.4c-0.7-1.2-1.7-2-3-2.6c-1.3-0.6-3-0.8-5.1-0.8
		s-4.4,0.5-6.7,1.6c-2.3,1.1-4.5,2.4-6.7,4v34.6h-7.8V83.5h7.8v5.1c2.4-2,4.9-3.6,7.5-4.7c2.6-1.1,5.3-1.7,8-1.7
		c5,0,8.8,1.5,11.4,4.5s3.9,7.3,3.9,13L513.3,129.8L513.3,129.8z"/>
	<path class="st2" d="M238.9,226.8h-10.2l-29.3-55.2v55.2h-7.7v-61.7h12.7l26.7,50.4v-50.4h7.7L238.9,226.8L238.9,226.8z"/>
	<path class="st2" d="M293.5,204.4h-34.1c0,2.8,0.4,5.3,1.3,7.4c0.9,2.1,2,3.9,3.5,5.2c1.4,1.3,3.1,2.3,5.1,3s4.1,1,6.5,1
		c3.1,0,6.3-0.6,9.5-1.9c3.2-1.3,5.5-2.5,6.8-3.7h0.4v8.5c-2.6,1.1-5.3,2-8,2.8s-5.6,1.1-8.6,1.1c-7.7,0-13.7-2.1-18-6.2
		c-4.3-4.2-6.5-10.1-6.5-17.7s2.1-13.6,6.2-18c4.1-4.4,9.6-6.7,16.3-6.7c6.2,0,11.1,1.8,14.4,5.5c3.4,3.6,5.1,8.8,5.1,15.5
		L293.5,204.4L293.5,204.4z M285.9,198.5c0-4.1-1.1-7.3-3.1-9.5c-2-2.2-5.1-3.4-9.3-3.4s-7.5,1.2-10,3.7s-3.9,5.5-4.2,9.2
		L285.9,198.5L285.9,198.5z"/>
	<path class="st2" d="M329.3,226.4c-1.5,0.4-3.1,0.7-4.8,1s-3.3,0.4-4.6,0.4c-4.7,0-8.3-1.3-10.8-3.8c-2.5-2.5-3.7-6.6-3.7-12.2V187
		h-5.3v-6.6h5.3v-13.3h7.8v13.3h16.1v6.6h-16.1v21.1c0,2.4,0.1,4.3,0.2,5.7c0.1,1.4,0.5,2.6,1.2,3.8c0.6,1.1,1.4,1.9,2.5,2.4
		c1.1,0.5,2.7,0.8,4.9,0.8c1.3,0,2.6-0.2,4-0.6s2.4-0.7,3-0.9h0.4L329.3,226.4L329.3,226.4z"/>
	<path class="st2" d="M397,180.5l-12.1,46.3h-7.2l-11.9-35.7L354,226.8h-7.2l-12.2-46.3h8.1l8.5,35.9l11.6-35.9h6.4l11.9,35.9
		l8-35.9H397L397,180.5z"/>
	<path class="st2" d="M447.7,203.7c0,7.5-1.9,13.5-5.8,17.9s-9,6.6-15.5,6.6s-11.8-2.2-15.6-6.6s-5.8-10.3-5.8-17.9
		s1.9-13.5,5.8-17.9c3.9-4.4,9.1-6.6,15.6-6.6s11.7,2.2,15.5,6.6C445.8,190.1,447.7,196.1,447.7,203.7z M439.6,203.7
		c0-6-1.2-10.5-3.5-13.4s-5.6-4.4-9.8-4.4s-7.5,1.5-9.8,4.4s-3.5,7.4-3.5,13.4s1.2,10.2,3.5,13.2s5.6,4.5,9.8,4.5s7.4-1.5,9.8-4.5
		C438.5,213.9,439.6,209.5,439.6,203.7L439.6,203.7z"/>
	<path class="st2" d="M488.6,189h-0.4c-1.2-0.3-2.3-0.5-3.4-0.6c-1.1-0.1-2.4-0.2-3.9-0.2c-2.4,0-4.7,0.5-7,1.6s-4.4,2.4-6.5,4.1
		v32.9h-7.8v-46.3h7.8v6.8c3.1-2.5,5.8-4.2,8.2-5.3s4.8-1.6,7.2-1.6c1.4,0,2.3,0,2.9,0.1c0.6,0.1,1.5,0.2,2.7,0.4L488.6,189
		L488.6,189z"/>
	<path class="st2" d="M538,226.8h-10.3l-18.6-20.3l-5.1,4.8v15.5h-7.8v-64.5h7.8v41.4l22.5-23.2h9.8l-21.5,21.4L538,226.8L538,226.8
		z"/>
</g>
</svg>
