<?xml version="1.0" encoding="utf-8"?>
<!-- Generator: Adobe Illustrator 27.2.0, SVG Export Plug-In . SVG Version: 6.00 Build 0)  -->
<svg version="1.1" id="Layer_1" xmlns="http://www.w3.org/2000/svg" xmlns:xlink="http://www.w3.org/1999/xlink" x="0px" y="0px"
	 viewBox="0 0 1044.5 512.5" style="enable-background:new 0 0 1044.5 512.5;" xml:space="preserve">
<style type="text/css">
	.st0{fill:none;stroke:#FFFFFF;stroke-width:13.22;stroke-linecap:round;stroke-linejoin:round;}
	.st1{fill-rule:evenodd;clip-rule:evenodd;fill:#FFFFFF;}
	.st2{fill:#FFFFFF;}
</style>
<g>
	<path class="st0" d="M101.8,505.9C-183.4,285,340.1,126.8,14.4,28.6c414.4-140.1,213.7,431.8,330.7,477.2"/>
	<path class="st0" d="M13,505.9h364.6"/>
	<path class="st1" d="M124.2,129.7c179.8,5.1-43.3,270.7,179.1,275.8C288.1,234.4,333.6-79.7,14.4,28.6
		C109.7,56.8,132.1,90.7,124.2,129.7L124.2,129.7z"/>
	<path class="st1" d="M101.8,505.9c-20.2-15.2-36.1-30.3-48.4-44.8c0,0-85.2-1.5-40.4,44.8H101.8L101.8,505.9L101.8,505.9z"/>
</g>
<g>
	<path class="st2" d="M431.8,167.5c0,5.5-1,10.5-2.9,15.2c-1.9,4.7-4.6,8.7-8,12.1c-4.3,4.3-9.3,7.4-15.1,9.6s-13.1,3.2-22,3.2
		h-16.4v46H351V130.2h33.5c7.4,0,13.7,0.6,18.8,1.9c5.1,1.2,9.7,3.2,13.7,5.9c4.7,3.1,8.3,7.1,10.9,11.8
		C430.5,154.4,431.8,160.3,431.8,167.5L431.8,167.5z M414.7,167.9c0-4.3-0.8-8-2.2-11.1s-3.8-5.7-6.8-7.7c-2.6-1.7-5.7-2.9-9.1-3.7
		s-7.7-1.1-12.9-1.1h-16.2v49.3h13.9c6.6,0,12-0.6,16.2-1.8c4.1-1.2,7.5-3.1,10.1-5.7c2.6-2.6,4.4-5.4,5.5-8.4
		C414.2,174.9,414.7,171.6,414.7,167.9L414.7,167.9z"/>
	<path class="st2" d="M525.6,209h-68.2c0,5.7,0.9,10.6,2.6,14.9c1.7,4.2,4.1,7.7,7,10.4c2.9,2.6,6.3,4.6,10.2,6c4,1.3,8.3,2,13.1,2
		c6.3,0,12.6-1.3,19-3.8c6.4-2.5,10.9-5,13.6-7.4h0.8v17c-5.2,2.2-10.6,4.1-16.1,5.6s-11.2,2.2-17.2,2.2c-15.4,0-27.4-4.2-36-12.5
		c-8.6-8.3-12.9-20.1-12.9-35.4s4.1-27.2,12.4-36.1c8.3-8.9,19.1-13.4,32.6-13.4c12.5,0,22.1,3.6,28.9,10.9
		c6.8,7.3,10.2,17.7,10.2,31.1L525.6,209L525.6,209z M510.4,197c-0.1-8.2-2.1-14.5-6.2-19s-10.2-6.7-18.5-6.7s-15,2.5-19.9,7.4
		s-7.8,11-8.4,18.3L510.4,197L510.4,197z"/>
	<path class="st2" d="M626.6,253.7H611v-52.7c0-4.3-0.2-8.2-0.8-12s-1.4-6.6-2.7-8.8c-1.4-2.3-3.4-4.1-6-5.2
		c-2.6-1.1-6-1.7-10.1-1.7s-8.7,1.1-13.3,3.1c-4.6,2.1-9.1,4.8-13.3,8v69.1h-15.6v-92.6h15.6v10.3c4.9-4,9.9-7.2,15.1-9.4
		c5.2-2.3,10.5-3.4,16-3.4c10,0,17.6,3,22.9,9s7.9,14.7,7.9,26L626.6,253.7L626.6,253.7z"/>
	<path class="st2" d="M731.8,243.1c0,15.7-3.6,27.2-10.7,34.6c-7.1,7.4-18.1,11-32.9,11c-4.9,0-9.7-0.4-14.4-1s-9.3-1.7-13.8-2.9
		v-15.9h0.8c2.5,1,6.6,2.2,12.1,3.7c5.5,1.5,11,2.2,16.6,2.2s9.7-0.6,13.2-1.9s6.2-3,8.1-5.3c1.9-2.2,3.3-4.8,4.2-7.8
		s1.2-6.4,1.2-10.2V241c-4.7,3.8-9.2,6.6-13.5,8.4c-4.3,1.9-9.7,2.8-16.4,2.8c-11.1,0-19.8-4-26.3-12c-6.5-8-9.7-19.2-9.7-33.8
		c0-8,1.1-14.8,3.4-20.6s5.3-10.8,9.2-15c3.6-3.9,8-7,13.1-9.2c5.1-2.2,10.2-3.3,15.3-3.3c5.4,0,9.8,0.5,13.5,1.6s7.5,2.7,11.5,4.9
		l1-4h14.6L731.8,243.1L731.8,243.1z M716.2,228.2v-50.5c-4.2-1.9-8-3.2-11.6-4s-7.1-1.2-10.7-1.2c-8.6,0-15.3,2.9-20.2,8.6
		s-7.4,14.1-7.4,25s1.8,18.3,5.5,23.6c3.7,5.4,9.7,8,18.2,8c4.5,0,9.1-0.9,13.6-2.6S712.4,231.1,716.2,228.2L716.2,228.2z"/>
	<path class="st2" d="M839.2,253.7h-15.6v-10.3c-5.2,4.1-10.3,7.3-15.1,9.5s-10.1,3.3-15.9,3.3c-9.7,0-17.3-3-22.7-8.9
		s-8.1-14.7-8.1-26.2v-60.1h15.6v52.7c0,4.7,0.2,8.7,0.7,12.1s1.4,6.2,2.8,8.6c1.5,2.4,3.4,4.2,5.8,5.3c2.4,1.1,5.8,1.7,10.4,1.7
		c4,0,8.4-1.1,13.2-3.1c4.8-2.1,9.2-4.8,13.4-8v-69.1h15.6L839.2,253.7L839.2,253.7z"/>
	<path class="st2" d="M886.7,145.6h-17.6v-16.2h17.6V145.6z M885.7,253.7h-15.6v-92.6h15.6V253.7z"/>
	<path class="st2" d="M993.9,253.7h-15.6v-52.7c0-4.3-0.2-8.2-0.8-12s-1.4-6.6-2.7-8.8c-1.4-2.3-3.4-4.1-6-5.2
		c-2.6-1.1-6-1.7-10.1-1.7s-8.7,1.1-13.3,3.1c-4.6,2.1-9.1,4.8-13.3,8v69.1h-15.6v-92.6h15.6v10.3c4.9-4,9.9-7.2,15.1-9.4
		c5.2-2.3,10.5-3.4,16-3.4c10,0,17.6,3,22.9,9s7.9,14.7,7.9,26L993.9,253.7L993.9,253.7z"/>
	<path class="st2" d="M445.2,447.7h-20.3l-58.5-110.4v110.4h-15.3V324.3h25.5l53.4,100.8V324.3h15.3L445.2,447.7L445.2,447.7z"/>
	<path class="st2" d="M554.3,403h-68.2c0,5.7,0.9,10.6,2.6,14.9c1.7,4.2,4.1,7.7,7,10.4c2.9,2.6,6.3,4.6,10.2,6c4,1.3,8.3,2,13.1,2
		c6.3,0,12.6-1.3,19-3.8c6.4-2.5,10.9-5,13.6-7.4h0.8v17c-5.2,2.2-10.6,4.1-16.1,5.5s-11.2,2.2-17.2,2.2c-15.4,0-27.4-4.2-36-12.5
		c-8.6-8.3-12.9-20.1-12.9-35.4s4.1-27.2,12.4-36.1c8.3-8.9,19.1-13.4,32.6-13.4c12.5,0,22.1,3.6,28.9,10.9
		c6.8,7.3,10.2,17.7,10.2,31.1L554.3,403L554.3,403z M539.2,391.1c-0.1-8.2-2.1-14.5-6.2-19c-4.1-4.5-10.2-6.7-18.5-6.7
		s-15,2.5-19.9,7.4s-7.8,11-8.4,18.3L539.2,391.1L539.2,391.1z"/>
	<path class="st2" d="M626.1,446.9c-2.9,0.8-6.1,1.4-9.6,1.9s-6.5,0.8-9.2,0.8c-9.5,0-16.6-2.5-21.6-7.6c-4.9-5.1-7.4-13.2-7.4-24.5
		v-49.2h-10.5v-13.1h10.5v-26.6h15.6v26.6H626v13.1h-32.2v42.2c0,4.9,0.1,8.7,0.3,11.4c0.2,2.7,1,5.3,2.3,7.7c1.2,2.2,2.9,3.8,5,4.9
		c2.1,1,5.4,1.5,9.7,1.5c2.5,0,5.2-0.4,8-1.1s4.8-1.4,6-1.9h0.8L626.1,446.9L626.1,446.9z"/>
	<path class="st2" d="M761.4,355.1l-24.1,92.6h-14.4L699,376.3l-23.6,71.4H661l-24.4-92.6h16.2l17,71.7l23.1-71.7h12.8l23.7,71.7
		l16.1-71.7H761.4L761.4,355.1z"/>
	<path class="st2" d="M862.8,401.5c0,15.1-3.9,27-11.6,35.7s-18.1,13.1-31.1,13.1s-23.5-4.4-31.2-13.1s-11.6-20.6-11.6-35.7
		s3.9-27,11.6-35.8c7.7-8.8,18.1-13.1,31.2-13.1s23.3,4.4,31.1,13.1C858.9,374.4,862.8,386.4,862.8,401.5z M846.7,401.5
		c0-12-2.3-20.9-7-26.7s-11.2-8.8-19.6-8.8s-15,2.9-19.7,8.8s-7,14.8-7,26.7s2.3,20.4,7,26.4s11.2,9,19.7,9s14.8-3,19.5-8.9
		C844.3,422,846.7,413.2,846.7,401.5L846.7,401.5z"/>
	<path class="st2" d="M944.7,372.1h-0.8c-2.3-0.5-4.6-1-6.8-1.2c-2.2-0.2-4.8-0.4-7.8-0.4c-4.8,0-9.5,1.1-13.9,3.2
		s-8.8,4.9-12.9,8.2v65.8h-15.6v-92.6h15.6v13.7c6.2-5,11.7-8.5,16.4-10.6s9.5-3.1,14.5-3.1c2.7,0,4.7,0.1,5.9,0.2
		c1.2,0.1,3,0.4,5.5,0.8L944.7,372.1L944.7,372.1z"/>
	<path class="st2" d="M1043.4,447.7h-20.6l-37.1-40.5l-10.1,9.6v30.9H960v-129h15.6v82.7l45-46.4h19.6l-43,42.8L1043.4,447.7
		L1043.4,447.7z"/>
</g>
</svg>
