<?xml version="1.0" encoding="utf-8"?>
<!-- Generator: Adobe Illustrator 27.2.0, SVG Export Plug-In . SVG Version: 6.00 Build 0)  -->
<svg version="1.1" id="Layer_1" xmlns="http://www.w3.org/2000/svg" xmlns:xlink="http://www.w3.org/1999/xlink" x="0px" y="0px"
	 viewBox="0 0 700 700" style="enable-background:new 0 0 700 700;" xml:space="preserve">
<path d="M691.5,651.2l-183-183c46.2-56.8,68.9-129.2,63.3-202.3c-5.6-73-39-141.1-93.3-190.3C424.1,26.4,353,0,279.8,1.7
	c-73.2,1.7-143,31.5-194.9,83.2C33.2,136.8,3.5,206.6,1.7,279.8C0,353,26.4,424.1,75.6,478.5c49.1,54.3,117.3,87.7,190.3,93.3
	c73,5.6,145.4-17.1,202.3-63.3l183,183c7.4,6.3,17.4,8.5,26.7,5.7c9.3-2.8,16.6-10,19.3-19.3C699.9,668.6,697.8,658.5,691.5,651.2
	L691.5,651.2z M125.2,449c-42.9-42.9-67-101.1-67.1-161.8c0-60.7,24.1-118.9,67-161.8c42.9-42.9,101.1-67,161.8-67
	c60.7,0,118.9,24.1,161.8,67c42.9,42.9,67,101.1,67,161.8c0,60.7-24.1,118.9-67.1,161.8c-42.7,43.2-101,67.6-161.7,67.6
	C226.2,516.5,167.9,492.2,125.2,449z"/>
</svg>
