<?xml version="1.0" encoding="utf-8"?>
<!-- Generator: Adobe Illustrator 27.2.0, SVG Export Plug-In . SVG Version: 6.00 Build 0)  -->
<svg version="1.1" id="Layer_1" xmlns="http://www.w3.org/2000/svg" xmlns:xlink="http://www.w3.org/1999/xlink" x="0px" y="0px"
	 viewBox="0 0 23.7 23.6" style="enable-background:new 0 0 23.7 23.6;" xml:space="preserve">
<path d="M23.4,22.1l-6.2-6.2c1.6-1.9,2.3-4.4,2.2-6.9c-0.2-2.5-1.3-4.8-3.2-6.5S11.9-0.1,9.4,0C6.9,0,4.5,1,2.8,2.8C1,4.6,0,7,0,9.4
	c-0.1,2.5,0.8,4.9,2.5,6.8s4,3,6.5,3.2s5-0.6,6.9-2.2l6.2,6.2c0.3,0.2,0.6,0.3,0.9,0.2c0.3-0.1,0.6-0.3,0.7-0.7
	C23.7,22.7,23.7,22.3,23.4,22.1L23.4,22.1z M4.1,15.2c-1.5-1.5-2.3-3.4-2.3-5.5s0.8-4.1,2.3-5.5c1.5-1.5,3.4-2.3,5.5-2.3
	s4.1,0.8,5.5,2.3c1.5,1.5,2.3,3.4,2.3,5.5s-0.8,4.1-2.3,5.5c-1.5,1.5-3.4,2.3-5.5,2.3C7.6,17.5,5.6,16.6,4.1,15.2z"/>
</svg>
